<svg xmlns="http://www.w3.org/2000/svg" width="16" height="20" fill="none"><path fill="#fff" d="M5.465 7.936c.307.23 1.46.359 1.886.346.104-.003.17-.045.211-.107.042.062.108.104.212.107.426.013 1.579-.115 1.886-.346.308-.23.052-.679.103-.91s.678-.998 1.242-1.024c.564-.025 1.575.384 1.857 1.32.282.934.205 1.895-.512 2.292s-1.396.18-1.524 0-.666-.167-.871.102c-.205.27-.922.743-.922 1.025v.043c-.148-.07-.327-.1-.415.099-.165.372-.474 1.44-.391 1.8s.61.25.726.437c.774 1.25-.014 2.262-.813 2.552-.01-.194-.087-1.763-.076-2.045.013-.303.078-2.69.079-2.714a.2.2 0 0 1 .046-.12c.577-.675.955-1.114.98-1.14.028-.02.153-.051.235-.072.079-.02.16-.041.22-.063.082-.03.346-.225.945-.679.274-.208.558-.423.635-.47a26 26 0 0 1 1.118-.604l-.031-.097-.024-.1c-.082.02-1.049.554-1.169.626-.086.052-.349.251-.653.482-.325.246-.815.618-.891.65-.05.018-.127.037-.2.056-.175.045-.276.072-.325.121-.04.04-.564.652-.996 1.157a.4.4 0 0 0-.095.247c0 .024-.066 2.41-.078 2.711-.013.309.073 2.012.076 2.085l.132-.007a1.2 1.2 0 0 1-.483.053 3 3 0 0 1-.414-.077h.01c.002-.739.016-2.702.054-2.915.04-.232.016-1.33.004-1.79a.4.4 0 0 0-.074-.222c-.55-.77-.896-1.182-1.03-1.228l-.138-.043c-.153-.047-.326-.099-.573-.232-.133-.071-.56-.361-1.012-.669-.889-.604-1.438-.973-1.575-1.005l-.047.2c.12.032.955.6 1.507.975.477.324.888.603 1.03.68.265.142.456.2.61.247q.069.02.13.04c.077.035.4.41.93 1.154a.2.2 0 0 1 .037.107c.02.732.03 1.576-.001 1.75-.045.256-.056 2.502-.057 2.895-.61-.201-1.073-.594-1.13-1.192-.074-.785.354-1.303.551-1.348s.38-.526.229-.81c-.152-.283-.29-1.098-.526-1.205l-.038-.017c.026-.094.03-.2.03-.303 0-.282-.717-.756-.922-1.025s-.743-.281-.87-.102c-.129.18-.808.397-1.525 0s-.794-1.358-.512-2.293S3.556 5.976 4.12 6.002c.563.026 1.191.794 1.242 1.025s-.205.679.103.909"/><path fill="#00A650" d="M12.766 11.594c.695-.208.533-.981.46-1.234l-.647.657c.085.012.145.032.16.057.026.044.035.25.027.52"/><path fill="#00A650" d="M13.405 12.458c.296-.518.378-1.227.384-2.511l-.18.09c.042.506-.005.904-.153 1.379-.095.307-.454.496-.712.595-.032.44-.096.91-.184 1.113-.18.41.538-.129.845-.667"/><path fill="#00A650" d="M14.686 8.974c-.026-.359-.214-.85-.338-.451a7.6 7.6 0 0 0-.256 1.271c-.05.408-.083.887-.072 1.424.026 1.316-.219 1.567-1.006 2.223a70 70 0 0 0-.992.835s.487-1.93.436-2.4c-.027-.246-.096-.444-.202-.53-.095-.079-.22-.068-.373.08-.322.314-.571 2.312-.856 2.876-.286.563-.57 1.164-.57 1.164s-.566 1.25 0 1.58.68.355 1.865-1.028 2.287-2.254 2.364-3.458.026-3.228 0-3.586"/><path fill="#fff" d="M2.28 11.594c-.008-.27 0-.476.027-.52.015-.025.075-.045.16-.057l-.647-.657c-.074.253-.235 1.026.46 1.234"/><path fill="#fff" d="M2.486 13.123c-.089-.202-.152-.672-.184-1.112-.259-.1-.617-.289-.712-.596a3.4 3.4 0 0 1-.154-1.379l-.179-.354c.006 1.285.088 2.258.384 2.775.307.538 1.024 1.076.845.666"/><path fill="#00A650" d="M4.589 17.046c.566-.33 0-1.58 0-1.58s-.284-.6-.57-1.164c-.285-.564-.534-2.562-.856-2.875-.152-.149-.278-.16-.373-.082-.106.087-.175.284-.202.531-.052.47.436 2.4.436 2.4s-.205-.18-.992-.835c-.787-.656-1.032-.907-1.006-2.223.01-.537-.022-1.016-.072-1.424a7.6 7.6 0 0 0-.256-1.271c-.124-.4-.312.092-.338.45-.026.36-.077 2.383 0 3.587s1.178 2.075 2.363 3.458 1.3 1.357 1.866 1.028M3.74 4.354s.085-.017.188-.128c.102-.11.862-1.425.999-1.707.136-.282.299-.23.299-.23l.034.119c.034.401-.41 1.007-.632 1.22s0 .376 0 .376.11-.06.401-.435c.29-.376.393-1.05.393-1.05l.11-.137h.172l.034.077c.11.239-.17.811-.325 1.067-.153.256 0 .265 0 .265.565-.401.538-1.469.487-1.571-.051-.103-.273-.043-.376-.085s0-.248 0-.248.427-.111.41-.051.069.187.23.264c.16.077.436.009.436.009l.026.154.085.06c.017 1.067.35 1.152.683 1.468s.743.384.743.384c-.12.307.017.828.017.828s.214.094.384-.06c.171-.153.094-.768.094-.802s-.136.222-.136.222l-.094-.222c-.095-.222-.188-.59-.188-.59s-.102-.264.103-.059c.204.205.222.213.281.085s-.05-.529-.05-.529-.01-.051.059-.026c.068.026.222.156.222.156s.034-.198.094-.164.068.102.136.29c.069.188.188.094.188.094s-.026-.128.009-.341.179-.052.179-.052c.043.444.418.837.418.837.171-.282-.256-1.135-.256-1.135s-.102-.043-.333-.043c-.23 0-.717.085-.717.085s-.137-.017-.359-.29-.12-.401-.12-.401.095-.009.189.017c.094.025.23.299.418.418.188.12.435-.06.606-.248.171-.187.171-.623.171-.623l-.03-.5a.19.19 0 0 1 .186-.205 2 2 0 0 1 1.236.398c-.067-.106-.62-.648-1.204-.88-.215-.084-.385.052-.49.18a.4.4 0 0 0-.081.333c.094.473.057.843-.035.981-.103.154-.495.103-.495.103-.256-.188-.359-1.025-.359-1.35 0-.323-.194-.579-.632-.563s-.58.342-.58.342.17.068.375.341c.205.274.086 1.127.086 1.127l-.103-.034s-.068.137-.358.137-.666-.308-.666-.769c0-.46-.113-.799-.137-.802C5.67.384 5.268.905 4.96.999s-.342.264-.342.264c.393.094.675-.17.982-.375.308-.205.342-.077.342-.077.051.359-.086.572-.086.572-.247-.043-.179-.213-.179-.213s-.213.034-.487.273c-.273.239-.674.256-.674.256.008.265.299.188.299.188l-.086.17c-.17-.034-.23.094-.23.094.068.171.316.111.316.111l-.026.103c-.282.17-.88 1.366-1.05 1.656s0 .333 0 .333"/><path fill="#00A650" d="M6.353 3.25c.072.191.17.148.17.148s.086-.4 0-.657c-.085-.256-.11-.29-.11-.29s-.18-.077-.257.085-.273.786-.256.922l.017.137s.276-.078.313-.581c.037-.504.123-.179.123-.179s-.058.26 0 .414M9.964 2.271c.137-.085.226.06.226.06.047-.094-.072-.23-.072-.23s.094-.103.248.034c.153.136.274.128.274.128-.085-.077-.164-.444-.164-.444l.274-.077c-.2-.357-.41-.479-.568-.521-.201-.055-.55-.043-.55-.043a2 2 0 0 0-.005.303c.01.157.038.254.055.346.025.13.04.319 0 .564 0 0 .146-.034.282-.12M10.57 4.081s.154-.06-.06-.427c-.213-.367-.308-.58-.354-.854-.047-.273-.286-.17-.286-.17s.077 1.05.7 1.451M10.51 2.647s-.05.828.47 1.247c.521.418.564.46.564.46s-.017-.213-.325-.717c-.307-.503-.478-.88-.708-.99M7.625 4.96c.102-.017.102-.64.102-.64s-.196.026-.324-.128-.29-.162-.325-.051c-.034.11-.375.734.111 1.016 0 0 .171-.12.325 0 0 0 .008-.18.11-.197M9.05 4.653c-.068.163.069.333.069.333h.162s0-.128.154-.102.29-.034.29-.034-.043-.017-.163-.154c-.12-.136-.301-.19-.28-.162.093.128.025.226.025.226zM8.479 6.156q.011-.005-.011-.016.001.02.01.016M8.214 5.387s-.06-.042-.068.248-.103.419-.103.419.094.05.23.05c.094 0 .166.02.195.036-.003-.036.003-.135-.04-.351-.06-.299-.214-.402-.214-.402M7.625 5.883s.18.017.247-.112c.069-.129 0-.386 0-.386s-.076.054-.247.105-.077.393-.077.393zM7.104 5.771c-.085.206-.174.274-.174.274s.174.111.328 0c.153-.111.07-.214.07-.214v-.264c-.02 0-.139-.002-.224.204M2.288 18.195s.712-.472 1.305-.675c-.193-.25-.57-.421-1.006-.421-.63 0-1.144.358-1.144.8 0 .205.327.565.845.296M12.787 18.464c-.901-.534-2.338-1.17-4.45-1.278l-.004.017a13 13 0 0 0-.699-.032h-.148q-.356.007-.699.032l-.003-.017c-2.113.108-3.55.744-4.45 1.278-.378.224-.565.064-.564.064l.834 1.016a.6.6 0 0 0 .765.065c.97-.68 2.438-1.115 4.078-1.115q.057 0 .113.003.056-.002.113-.003c1.64 0 3.108.435 4.078 1.115.237.167.56.14.765-.065l.834-1.016s-.185.16-.563-.064M12.533 17.099c-.435 0-.813.17-1.006.421.593.203 1.305.675 1.304.675.52.27.846-.091.846-.296 0-.442-.514-.8-1.144-.8"/><path fill="#000" d="M7.712.397c0 .04-.06.073-.133.073S7.446.437 7.446.397s.06-.072.133-.072.133.032.133.072"/><path fill="#00ADEF" d="m8.024 15.827-.923-.124.04-4.782c-.344-.564-.964-1.434-1.625-1.563-.59-.115-2.33-1.505-2.548-1.665l.493-.667c.79.584 1.246 1.14 2.573 1.66.412.16 1.075.789 1.5 1.186.633-.514.817-.835 1.203-.911.28-.092 1.962-1.08 3.084-1.857l.464.597c-1.184.474-2.668 1.65-3.111 1.903-.171.075-.677.728-1.132 1.253z"/><path fill="#231F20" d="M12.611 11.218s.28.014.434-.462c.155-.476-.58.231-.58.231z"/><path fill="#231F20" d="M14.686 12.56c-.077 1.204-1.178 2.074-2.364 3.458-1.185 1.383-1.3 1.357-1.865 1.027-.566-.33 0-1.579 0-1.579s.284-.601.57-1.164c.285-.564.534-2.562.856-2.875.152-.149.277-.16.373-.082.105.087.175.284.202.531.051.469-.436 2.4-.436 2.4s.205-.18.992-.835c.787-.656 1.031-.907 1.006-2.223-.01-.537.022-1.016.072-1.424a7.6 7.6 0 0 1 .256-1.271c.124-.4.312.092.338.45.025.36.077 2.383 0 3.587m-1.01 5.338c0 .206-.326.566-.845.297 0 0-.711-.472-1.304-.675.193-.25.57-.421 1.006-.421.63 0 1.144.358 1.144.8m-1.16 1.646a.6.6 0 0 1-.766.065c-.97-.68-2.437-1.115-4.077-1.115l-.113.002-.113-.002c-1.64 0-3.108.434-4.078 1.115a.6.6 0 0 1-.766-.065l-.833-1.016c-.001 0 .185.16.563-.064.901-.534 2.338-1.17 4.45-1.278l.004.017q.342-.026.699-.032h.148q.356.006.699.032l.003-.017c2.112.107 3.55.744 4.45 1.278.378.224.565.063.564.064zM1.443 17.898c0-.44.513-.8 1.144-.8.435 0 .813.172 1.006.422-.593.203-1.305.675-1.305.675-.518.269-.845-.091-.845-.297M.36 12.56c-.077-1.204-.026-3.228 0-3.586.025-.36.214-.85.338-.451.073.237.183.678.256 1.271.05.408.082.887.072 1.424-.026 1.316.219 1.567 1.006 2.223s.992.835.992.835-.488-1.931-.436-2.4c.027-.247.096-.444.202-.53.095-.079.22-.068.373.08.322.314.57 2.312.856 2.875s.57 1.165.57 1.165.566 1.25 0 1.58-.68.355-1.866-1.028S.437 13.764.36 12.56m1.92-.966c-.604-.18-.561-.787-.492-1.109q.069.072.142.14c.18.17.362.296.541.391l-.004.001c-.086.012-.145.032-.16.057-.027.044-.035.25-.027.52m-.69-.179c.095.308.453.497.712.596.032.44.095.91.184 1.112.18.41-.538-.128-.845-.666-.296-.517-.378-1.226-.384-2.51v-.174q.082.144.178.28c-.04.498.009.893.154 1.362m-.211-4.952c.461-.602 1.086-1.447 2.285-1.562s1.826.377 2.364.983c.538.605 1.383 1.374 1.422 1.617.014.089.044.2.057.303a1 1 0 0 0-.004.183c-.023.091-.091.152-.25.141-.392-.025-1.366-.217-1.532-.307-.167-.09-.244-.435-.23-.666.012-.23-.142-.738-.68-1.06s-.963-.42-1.344-.211c-.059.032-1.14.426-1.384 1.489-.243 1.063-.219 1.893.692 2.472.91.578 1.96-.154 1.96-.154l.256.14s.87.705.845.897c-.013.099-.006.18-.046.241a.3.3 0 0 0-.25.111l-.05.007c-.313.032-1.3.173-1.937.117-.1-.122-.412-.184-.7-.199a3.6 3.6 0 0 1-1.023-.68l.016-.045s-.306-.73-.39-.4a2.5 2.5 0 0 1-.21-.382c-.03-.486-.137-.875-.275-1.142-.06-.754.096-1.486.408-1.893M3.519 4.8c.224-.069.332-.146.361-.168q.162-.12.267-.297l.037-.063c1.315-.1 1.52-.398 1.52-.398s.153.02.392-.14c.24-.158.683-.255.683-.255.052.577.461.312.171.547s-.222 1.215-.222 1.215l.12-.034.017.308.153.012c0 .255-.534.47-.644.511-.374-.372-.765-.738-1.05-.945C4.58 4.555 3.519 4.8 3.519 4.8s1.561-.104-.06.017zM6.23 3.013c-.037.504-.313.582-.313.582L5.9 3.458c-.017-.137.18-.76.256-.922s.256-.086.256-.086.026.035.111.29c.086.257 0 .658 0 .658s-.098.043-.17-.15c-.059-.153 0-.413 0-.413s-.086-.325-.123.178M3.74 4.021c.17-.29.768-1.485 1.05-1.656l.026-.102s-.248.06-.316-.111c0 0 .06-.129.23-.094l.086-.171s-.29.077-.3-.188c0 0 .402-.017.675-.256.274-.24.487-.273.487-.273s-.068.17.18.213c0 0 .136-.213.085-.572 0 0-.034-.128-.342.077-.307.205-.589.47-.982.376 0 0 .034-.171.342-.265.307-.094.708-.615 1.204-.538.024.004.136.342.136.803 0 .46.376.768.666.768s.359-.137.359-.137l.102.035s.12-.854-.085-1.127C7.138.529 6.967.46 6.967.46s.143-.325.58-.341c.439-.017.633.239.633.563 0 .325.102 1.161.358 1.35 0 0 .393.05.496-.103.092-.14.13-.509.034-.982A.4.4 0 0 1 9.15.616c.104-.129.275-.265.49-.18.585.23 1.137.773 1.204.879A2.04 2.04 0 0 0 9.608.917a.19.19 0 0 0-.187.205l.031.5s0 .436-.17.624c-.172.187-.42.367-.607.247-.188-.12-.325-.393-.418-.418-.094-.026-.188-.017-.188-.017s-.103.128.12.401c.221.273.358.29.358.29s.487-.085.717-.085.333.043.333.043.427.853.256 1.135c0 0-.376-.393-.418-.836 0 0-.145-.163-.18.05-.034.214-.008.342-.008.342s-.12.094-.188-.094c-.068-.187-.077-.256-.137-.29s-.094.164-.094.164-.153-.13-.222-.155c-.068-.026-.06.025-.06.025s.112.402.052.53-.077.12-.282-.086c-.205-.205-.102.06-.102.06s.093.367.187.589l.094.222s.137-.256.137-.222.077.649-.094.803c-.17.153-.384.06-.384.06s-.137-.521-.017-.829c0 0-.41-.068-.743-.384s-.666-.401-.683-1.469l-.085-.06L6.6 2.11s-.276.068-.437-.009c-.16-.076-.246-.205-.229-.264s-.41.051-.41.051-.102.205 0 .248c.103.042.325-.017.376.085s.078 1.17-.487 1.571c0 0-.153-.008 0-.265.154-.256.436-.828.325-1.067l-.034-.077h-.171l-.111.137s-.103.674-.393 1.05-.401.436-.401.436-.222-.163 0-.376.666-.82.632-1.221l-.034-.12s-.163-.05-.3.231-.896 1.597-.998 1.708a.4.4 0 0 1-.188.128s-.17-.043 0-.333m7.48-.384c.307.504.324.717.324.717s-.043-.042-.564-.46-.47-1.247-.47-1.247c.231.11.402.486.71.99M10.155 2.8c.046.274.141.487.355.854.213.368.06.427.06.427-.624-.401-.7-1.451-.7-1.451s.239-.103.285.17m-.474-.973c-.017-.092-.044-.189-.055-.346a2 2 0 0 1 .004-.303s.35-.012.551.043c.159.042.367.164.568.52l-.273.078s.078.367.163.444c0 0-.12.008-.274-.128-.154-.137-.248-.035-.248-.035s.12.137.073.23c0 0-.09-.144-.227-.059-.136.086-.281.12-.281.12.04-.245.024-.433 0-.564m-.546 3.369c.273.021.41-.21.41-.21.324 0 .512-.14.512-.14s-1.076-.713-1.178-.972c-.103-.258.341-.17.341-.17l.052.136.307.115.068.09.513.03.563.672h.008l.008.013a1.94 1.94 0 0 0-.939.333c-.283.205-.67.567-1.041.936-.001-.001-.12-.106-.188-.447-.068-.344.035-.254.24-.264.204-.01.324-.122.324-.122m.145-.662c-.02-.028.16.025.28.162s.164.154.164.154-.136.06-.29.034-.154.102-.154.102H9.12s-.137-.17-.068-.333l.256.107s.068-.098-.026-.226m.357 6.797c.288.003.645.016.96.016q-.321.422-.596.876a38 38 0 0 0-.364-.892M8.043 6.054s.094-.129.103-.419.068-.247.068-.247.154.102.213.4c.044.217.038.316.04.352a.5.5 0 0 0-.193-.035c-.137 0-.23-.051-.23-.051m.395.301c-.463.477-.835.89-.835.89l-.04.254-.04-.254s-.423-.468-.928-.984l.079.081zm-1.334-.584c.085-.206.205-.204.225-.204v.264s.082.103-.071.214c-.154.111-.328 0-.328 0s.089-.068.174-.274m.768-.386s.069.257 0 .386c-.068.129-.247.112-.247.112h-.077s-.094-.342.077-.393a1 1 0 0 0 .247-.105m-.247-.424c-.103.017-.111.196-.111.196-.154-.12-.325 0-.325 0-.486-.282-.145-.905-.11-1.016.033-.111.196-.102.324.051.128.154.324.128.324.128s0 .624-.102.64m-2.16 2.975c.307.23 1.46.359 1.886.346.103-.003.17-.045.211-.107.042.062.108.104.212.107.426.013 1.579-.115 1.886-.346.308-.23.051-.679.103-.91.051-.23.678-.998 1.242-1.024.563-.025 1.575.385 1.857 1.32.282.934.205 1.895-.512 2.292s-1.396.18-1.524 0-.666-.167-.871.102c-.205.27-.922.743-.922 1.025v.043c-.148-.07-.327-.1-.415.099-.165.372-.474 1.44-.391 1.8s.61.25.726.437c.774 1.25-.014 2.263-.813 2.552-.01-.193-.087-1.763-.076-2.045.013-.303.078-2.69.079-2.714a.2.2 0 0 1 .046-.12c.577-.675.955-1.114.98-1.14.028-.02.153-.051.235-.072.079-.02.16-.041.22-.063.082-.03.346-.225.945-.679.274-.208.558-.423.635-.469a26 26 0 0 1 1.118-.605l-.031-.097-.025-.1c-.08.02-1.048.554-1.168.626-.086.052-.349.251-.653.482-.325.246-.815.618-.892.65-.05.018-.126.037-.2.056-.174.045-.275.072-.324.121-.04.04-.564.652-.996 1.157a.4.4 0 0 0-.095.248c0 .024-.066 2.41-.078 2.71-.013.309.073 2.012.076 2.085l.132-.007a1.2 1.2 0 0 1-.483.053 3 3 0 0 1-.414-.077h.01c.002-.738.016-2.702.054-2.915.04-.232.016-1.33.004-1.79a.4.4 0 0 0-.074-.222c-.55-.769-.896-1.182-1.03-1.228l-.138-.043c-.153-.047-.326-.099-.574-.232-.132-.071-.559-.361-1.01-.668-.89-.605-1.44-.974-1.576-1.006l-.048.2c.12.032.955.6 1.508.975.477.324.888.603 1.03.68.265.142.456.2.61.247q.069.02.13.04c.076.035.4.41.93 1.154a.2.2 0 0 1 .037.107c.02.732.03 1.576-.001 1.75-.045.256-.056 2.502-.057 2.895-.61-.201-1.074-.594-1.13-1.192-.074-.785.354-1.303.551-1.348s.38-.526.229-.81c-.152-.283-.29-1.098-.527-1.205l-.037-.017c.026-.093.03-.2.03-.303 0-.282-.717-.756-.922-1.025s-.743-.281-.87-.102c-.129.18-.808.397-1.525 0s-.794-1.358-.512-2.293S3.556 5.977 4.12 6.002c.563.026 1.19.794 1.242 1.025.051.23-.205.679.103.91m4.658 7.494c-.53 1.017-1.465 1.248-2.137 1.427s-1.817-.211-2.543-.978c-.727-.766-.78-1.897-.718-2.453.028-.25.174-.612.34-.961.069-.023.119-.086.085-.173.179-.358.363-.681.442-.83a1 1 0 0 1 .085-.135.5.5 0 0 0 .235-.07q.048.016.106.036c.17.05.446 1.088.446 1.088l.026.28s-.994.65-.837 1.675c.156 1.026.833 1.439 1.824 1.552 1.689.194 2.038-1.401 1.962-2-.076-.598-.35-.854-.548-.93s-.46-.276-.475-.458c-.015-.181.175-1.115.296-1.473.07-.207.196-.194.327-.122.019.215.102.406.433.423.19.376.443 1.102.68 1.637.246.551.411 1.125.221 1.833a7 7 0 0 0-.236.602zm-.217 1.682q-.702-.12-1.463-.163c.601-.15 1.183-.49 1.56-1.1-.156.62-.137 1.077-.097 1.263m-5.38-5.765c.286 0 .605-.01.876-.015-.097.233-.226.522-.339.791-.08-.126-.18-.226-.283-.353-.106-.133-.147-.296-.254-.423m-.288.147c.136.11.174.283.27.423.113.162.269.263.345.455a.16.16 0 0 0 .077.085 4 4 0 0 0-.07.204c-.112.366-.523 1.093-.168 2.126.354 1.034 1.153 1.852 2.118 2.142l.04.011q-.891.037-1.703.183c.084-.18.143-1.37-.945-3.244 0 0-.556-2.164-.611-2.569.176.01.327.01.439.02q.076.007.168.011c-.023.05-.017.108.04.153m6.324 2.395c-.075-.352-.257-.876-.446-1.374a.14.14 0 0 0 .112-.072q.296-.497.648-.957c.04-.052.037-.103.011-.143a3 3 0 0 0 .207-.013c.095-.01.218-.01.36-.016-.058.417-.61 2.565-.61 2.565q-.138.236-.251.459.014-.22-.031-.449m2.182-1.878c.258-.1.617-.288.712-.596.136-.436.186-.809.161-1.26q.091-.122.172-.25v.041c-.006 1.285-.088 1.994-.384 2.511-.307.538-1.025 1.076-.845.666.088-.202.152-.672.184-1.112m-.005-.937c-.012-.02-.05-.035-.105-.047.185-.097.374-.226.561-.401l.075-.075c.06.333.06.875-.504 1.043.008-.27 0-.476-.027-.52m1.007-4.61c.29.38.446 1.043.417 1.743-.197.285-.356.795-.372 1.47a3 3 0 0 1-.186.295c-.052-.537-.405.308-.405.308s.011.03.026.08l.007.025c-.31.283-.656.484-.955.617-.314.006-.687.07-.79.209-.636.038-1.554-.093-1.853-.124a.7.7 0 0 1-.223-.053L9.362 11c-.07-.063-.058-.156-.073-.272-.026-.192.845-.896.845-.896l.256-.141s1.049.732 1.96.153c.91-.578.934-1.408.691-2.471s-1.324-1.457-1.383-1.49c-.381-.209-.807-.111-1.345.211-.538.323-.691.83-.679 1.06.013.231-.064.577-.23.667-.167.09-1.14.282-1.533.307-.158.01-.226-.05-.25-.142a1 1 0 0 0-.004-.182c.014-.104.044-.215.058-.303.038-.244.884-1.012 1.421-1.617.538-.606 1.166-1.098 2.364-.983 1.2.115 1.824.96 2.285 1.562m.991 1.587c-.115-.124-.254-.13-.39-.038q0-.198-.025-.397c-.112-.869-.706-2.054-1.765-2.56a.05.05 0 0 0-.014-.026.2.2 0 0 1-.04-.053.1.1 0 0 0-.02-.018l-.005-.011a.2.2 0 0 0-.055-.053l-.039-.037.137.03a8.4 8.4 0 0 1-1.592-2.02c.154.086.615.086.615.086-.274-.205-.393-.734-.393-.734.188.085.393.034.393.034-.188-.205-.29-.58-.29-.58.204.017.204-.086.204-.086-.136-.085-1.127-.973-1.707-1.264-.368-.183-.623.062-.76.267a.46.46 0 0 0-.056.398c.09.278.212.802-.124.89-.46.119-.529-.7-.512-1.145C8.316.29 8.043 0 7.548 0s-.854.598-.854.598.341.05.444.12c.102.068.341.614.085.955-.256.342-.563.018-.7-.136S6.506.478 6.335.29s-1.178.256-1.64.65c-.46.392-1.007.46-1.007.46 0 .222.29.205.29.205-.068.24-.272.512-.272.512l.273.086c.017.307-.256.546-.256.546h.307a4.76 4.76 0 0 1-1.178 2.14q.098.001.185-.004C1.682 5.222.931 6.625.803 7.616q-.03.232-.025.465c-.16-.159-.332-.178-.47-.03-.358.385-.46 4.734 0 5.39.404.573 2.017 2.688 2.691 3.396a2 2 0 0 0-.412-.046c-.8 0-1.451.497-1.451 1.108q0 .04.005.08v.001a.9.9 0 0 0 .142.402l.001.002q.056.085.129.162l.932 1.175a.96.96 0 0 0 1.222.109c.812-.558 2.01-.94 3.367-1.013.39-.022.89-.015 1.252 0 1.358.056 2.554.455 3.367 1.013a.96.96 0 0 0 1.221-.11l.933-1.174q.073-.076.128-.162l.001-.001v-.001a.9.9 0 0 0 .143-.402l.005-.081c0-.611-.651-1.108-1.452-1.108q-.272.001-.51.071c.658-.679 2.306-2.84 2.715-3.421.461-.656.359-5.005 0-5.39"/><path fill="#231F20" d="M4.274 10.805c1.51-.025.742-.32.742-.32s-.345-.423-.474-.371c-.128.05-.038.243-.473.268-.436.026-1.407.322-2.1-.78-.695-1.104-.475-1.256-.462-1.41s-.077-.691-.077-.691c0 .038-.435 1.127.141 1.934.577.807 1.191 1.396 2.703 1.37M10.3 5.386c-.665.182-1.767 1.91-1.972 2.013s-.294.205-.205.256c.09.051.544-.064.772-.064s.381-.077.394-.192c.013-.116-.077-.615.205-.96.282-.347.73-1.053 1.716-1.053h.5s-.577-.229-1.41 0M5.631 6.438c.282.345.192.845.205.96s.167.192.394.192c.228 0 .682.116.771.064.09-.051 0-.153-.205-.256-.204-.102-1.306-1.83-1.972-2.013-.832-.228-1.409 0-1.409 0h.5c.986 0 1.434.707 1.716 1.053M13.157 9.601c-.694 1.103-1.665.807-2.1.782s-.347-.218-.475-.27c-.128-.05-.473.372-.473.372s-.769.295.742.32 2.126-.563 2.703-1.37c.576-.807.14-1.896.14-1.934 0 0-.09.538-.076.692.012.153.233.305-.461 1.408M5.565 15.143c-.674-1.034-.075-1.78.104-2.155.179-.376.308-.223.397-.317s-.14-.56-.14-.56.03-.792-.537.535-.296 2.095.173 2.911c.469.817 1.54.846 1.572.86 0 0-.42-.283-.553-.33s-.34.09-1.015-.944M9.018 11.431c-.075.06-.142.505-.225.707-.082.201-.073.366.02.421.091.056.543.166.731.547.189.38.62 1.046.263 1.918l-.18.442s.4-.423.509-1.246c.087-.659-.965-2.29-.977-2.51-.011-.22-.065-.339-.14-.279"/><path fill="#231F20" d="M3.393 7.119c.058.049 1.44 1.2 2.254 1.5.693.255 1.616 1.119 1.794 1.289a.176.176 0 0 0 .243.001c.524-.489.821-.743.891-.784.154-.023.65-.235.856-.358.234-.14 2.302-1.45 2.39-1.506l-.11-.173c-.022.014-2.153 1.365-2.385 1.503-.224.134-.703.323-.775.332-.051 0-.11 0-.987.819-.28-.266-1.15-1.059-1.846-1.315-.781-.288-2.18-1.454-2.194-1.466zM3.319 18.944a.2.2 0 0 1 .001.062.1.1 0 0 1-.057.069.1.1 0 0 1-.095.006q-.048-.02-.085-.09a.2.2 0 0 1-.027-.126.11.11 0 0 1 .06-.082q.05-.027.089-.013.022.009.046.035l.095-.05a.16.16 0 0 0-.07-.063q-.087-.045-.202.017a.23.23 0 0 0-.114.129q-.03.094.027.205.055.1.139.13a.22.22 0 0 0 .177-.022.21.21 0 0 0 .109-.255zM3.614 18.882l-.05-.112c.088-.042.132-.063.221-.103l-.032-.076a7 7 0 0 0-.223.104l-.042-.092c.098-.047.147-.07.246-.114l-.032-.078a8 8 0 0 0-.343.162l.2.43c.134-.066.202-.097.338-.158l-.033-.079c-.1.045-.15.068-.25.116M4.08 18.251l.117.311a9 9 0 0 0-.305-.234l-.104.045.18.44.088-.037-.125-.314c.126.093.188.14.31.238l.095-.037-.162-.448zM4.618 18.056c-.157.052-.235.08-.39.138l.028.08c.057-.022.086-.033.143-.053l.126.371.096-.034-.121-.373.143-.048zM4.991 18.153a.1.1 0 0 1-.046.022l-.107.032-.036-.123.112-.033a.1.1 0 0 1 .049-.006q.031.006.043.048.01.039-.015.06m.178.194a.2.2 0 0 1-.014-.042l-.008-.031a.15.15 0 0 0-.033-.069.1.1 0 0 0-.056-.023.1.1 0 0 0 .045-.06.14.14 0 0 0-.021-.116.1.1 0 0 0-.035-.032.1.1 0 0 0-.054-.02.2.2 0 0 0-.08.01l-.233.072.138.457.095-.03-.053-.18.097-.03q.04-.011.06-.001t.032.054l.012.043a.2.2 0 0 0 .028.061l.108-.03-.003-.012a.04.04 0 0 1-.025-.02zM5.369 18.148c.007-.08.012-.119.02-.198.042.067.062.1.102.169-.049.011-.073.017-.122.03m-.061-.29c-.027.203-.039.304-.059.507l.103-.026.009-.104.174-.042.052.089.107-.024a13 13 0 0 0-.27-.429zM5.837 18.141l-.071-.385-.104.02.092.47c.134-.028.2-.041.335-.064l-.013-.084zM6.579 18.02a.1.1 0 0 1-.048.015l-.117.014c-.006-.05-.01-.075-.015-.126.048-.006.071-.01.12-.015a.1.1 0 0 1 .049.002q.033.01.036.048.005.044-.025.063m-.203-.28.108-.014a.2.2 0 0 1 .06 0q.026.008.03.042.004.03-.015.044a.1.1 0 0 1-.05.017l-.12.015zm.245.11a.1.1 0 0 0 .035-.031.1.1 0 0 0 .016-.072.12.12 0 0 0-.03-.07q-.042-.046-.134-.037l-.242.03.063.474c.086-.012.129-.017.215-.027a.4.4 0 0 0 .067-.015.14.14 0 0 0 .096-.148.12.12 0 0 0-.025-.068.1.1 0 0 0-.06-.036M6.924 17.9l.051-.193.074.184zm-.014-.298c-.058.196-.086.294-.138.491l.105-.009.025-.1.178-.012.037.096.109-.005a13 13 0 0 0-.197-.469zM7.579 17.577v.333a9 9 0 0 0-.2-.33c-.044 0-.066.001-.11.003l.016.477.093-.002-.008-.34c.084.134.125.201.203.337h.1l.004-.478zM8.075 17.589a7 7 0 0 0-.2.19l.006-.198-.104-.002-.008.478c.04 0 .06 0 .099.002l.004-.16.05-.047c.058.085.086.128.141.215l.129.007a8 8 0 0 0-.195-.292c.084-.075.126-.112.214-.186zM8.751 18.012a.12.12 0 0 1-.1.032.12.12 0 0 1-.09-.054.2.2 0 0 1-.025-.128.2.2 0 0 1 .049-.12.12.12 0 0 1 .103-.033.12.12 0 0 1 .093.056.2.2 0 0 1 .02.128.2.2 0 0 1-.05.119m-.054-.387a.23.23 0 0 0-.17.038.25.25 0 0 0-.092.19.27.27 0 0 0 .056.203.22.22 0 0 0 .151.072.22.22 0 0 0 .163-.036q.08-.058.099-.185a.26.26 0 0 0-.05-.206.23.23 0 0 0-.157-.076M8.948 18.155l.098.015.03-.198c.086.014.13.022.215.038l.014-.082-.216-.038.016-.108c.1.016.15.024.25.043l.014-.082a8 8 0 0 0-.355-.06zM9.93 17.866l-.076.324a9 9 0 0 0-.12-.371l-.108-.025-.095.468.092.02.07-.33c.052.15.076.225.12.377.04.01.06.014.099.025l.114-.464zM10.114 17.914l-.119.462c.04.01.058.016.097.027l.123-.461zM10.45 18.328l.109.035a.12.12 0 0 1-.062.06.12.12 0 0 1-.089 0 .14.14 0 0 1-.079-.063q-.03-.047-.005-.131t.074-.114a.13.13 0 0 1 .108-.012q.03.01.052.028.038.034.035.084l.098.033a.17.17 0 0 0-.028-.13.25.25 0 0 0-.135-.094.23.23 0 0 0-.191.014.25.25 0 0 0-.114.16.26.26 0 0 0 .014.192q.04.08.133.11a.2.2 0 0 0 .1.007.2.2 0 0 0 .065-.028l-.008.06.064.022.079-.243-.197-.067zM10.908 18.258c.1.038.151.057.251.098l.03-.08a8 8 0 0 0-.351-.133l-.153.451c.14.05.208.077.346.133l.03-.08a8 8 0 0 0-.254-.1l.04-.115c.091.034.136.051.226.087l.03-.077-.228-.088zM11.452 18.61a.1.1 0 0 1-.05-.014l-.104-.045.048-.119.108.047q.03.015.042.028.02.027.004.066-.016.037-.048.037m.107.048a.13.13 0 0 0 .055-.103.2.2 0 0 0-.008-.047.13.13 0 0 0-.03-.051.2.2 0 0 0-.07-.045c-.09-.04-.135-.06-.226-.098l-.173.444.092.039.07-.173.093.04q.04.018.049.039.008.021-.009.063l-.016.04a.2.2 0 0 0-.016.066c.04.02.061.029.103.048l.004-.01a.04.04 0 0 1-.006-.034.3.3 0 0 1 .015-.042l.013-.029a.15.15 0 0 0 .017-.074.1.1 0 0 0-.03-.055.1.1 0 0 0 .073-.017M11.742 18.521l-.195.434.092.045.2-.432zM12.039 19.005l-.114-.061.142-.137zm-.345.022.097.05c.028-.03.043-.044.072-.073.066.034.098.051.163.087l-.016.103c.04.021.06.032.099.055.028-.203.04-.304.062-.509l-.11-.058c-.15.136-.223.205-.367.345"/><path fill="#D8AF7F" d="M4.274 10.805c-1.512.026-2.127-.563-2.703-1.37s-.14-1.896-.14-1.934c0 0 .089.538.076.692s-.233.305.461 1.408 1.665.807 2.1.782.346-.218.474-.27c.128-.05.474.372.474.372s.769.295-.743.32m.55-5.42c.666.183 1.768 1.911 1.973 2.014s.294.205.205.256c-.09.051-.544-.064-.772-.064s-.381-.077-.394-.192c-.013-.116.077-.615-.205-.96-.282-.347-.73-1.053-1.716-1.053h-.5s.577-.229 1.41 0m1.012 5.344c.026-.193-.845-.897-.845-.897l-.256-.141s-1.05.732-1.96.154c-.91-.579-.935-1.409-.691-2.472.243-1.063 1.324-1.457 1.383-1.49.38-.209.807-.111 1.345.212.537.322.691.83.678 1.06s.064.576.23.666c.167.09 1.14.282 1.534.308.393.025.234-.385.196-.628s-.884-1.012-1.422-1.617C5.49 5.278 4.863 4.786 3.664 4.9s-1.824.96-2.285 1.563c-.461.602-.583 1.913-.166 2.958s1.472 1.563 2.03 1.73c.556.166 1.876-.026 2.247-.065.372-.038.32-.166.346-.358"/><path fill="#D8AF7F" d="M13.554 9.435c-.577.807-1.191 1.396-2.703 1.37-1.51-.025-.743-.32-.743-.32s.346-.422.474-.371.039.243.474.269c.436.025 1.407.321 2.1-.782.695-1.103.474-1.255.462-1.408-.013-.154.076-.692.076-.692 0 .038.436 1.127-.14 1.934m-2.344-4.05c-.986 0-1.434.707-1.716 1.053s-.192.845-.205.96c-.013.116-.167.193-.394.193-.228 0-.682.115-.772.064s0-.154.205-.257c.205-.102 1.307-1.83 1.973-2.012.832-.229 1.408 0 1.408 0zm2.536 1.079c-.461-.602-1.087-1.448-2.285-1.563s-1.826.377-2.364.983c-.538.605-1.383 1.374-1.422 1.617s-.197.653.196.628 1.367-.218 1.533-.308c.167-.09.243-.435.23-.666-.012-.23.142-.738.68-1.06.537-.323.963-.42 1.344-.211.059.032 1.14.426 1.383 1.489s.22 1.893-.691 2.472-1.96-.154-1.96-.154l-.256.14s-.87.705-.845.897-.026.32.346.359c.371.039 1.691.23 2.248.064s1.613-.684 2.03-1.729.294-2.356-.167-2.959M10.136 14.22c-.11.824-.51 1.246-.51 1.246l.181-.441c.357-.873-.074-1.538-.263-1.919-.188-.38-.64-.491-.732-.546s-.1-.22-.019-.422c.083-.201.15-.647.226-.707.075-.06.129.059.14.279s1.064 1.852.977 2.51m-4.574 1.338c-.47-.817-.741-1.585-.174-2.912.568-1.327.538-.535.538-.535s.23.466.14.56-.218-.058-.397.317c-.179.376-.778 1.122-.104 2.155.675 1.034.882.897 1.016.944s.553.331.553.331c-.033-.014-1.104-.043-1.572-.86m3.747-4.465c-.19-.126-.476-.423-.597-.065-.12.357-.311 1.291-.296 1.473.015.181.277.38.475.457.198.076 1.146 1.062.055 2.455-.039.049-.489.665-1.469.476s-1.668-.526-1.824-1.552.837-1.675.837-1.675l-.025-.28s-.277-1.038-.447-1.089-.26-.144-.426.17c-.167.314-.805 1.408-.866 1.964-.062.556-.01 1.687.717 2.453.726.766 1.871 1.157 2.543.978s1.607-.41 2.137-1.427.344-1.76.03-2.465c-.314-.706-.653-1.746-.843-1.873"/></svg>